# xmcd
#
# Track frame offsets:
#       183
#       10353
#       22843
#       32658
#       46165
#       54858
#       66483
#       77723
#       87203
#       99100
#       110068
#       119765
#       132253
#       144305
#       153830
#       165158
#       180180
#       190405
#       199753
#       209930
#
# Disc length: 2928 seconds
#
# Revision: 2
# Processed by: cddbd v1.5.2PL0 Copyright (c) Steve Scherf et al.
# Submitted via: FreeDbEdit v0.1
#
DISCID=060b6e14
DTITLE=The Stanley Brothers - 20 Bluegrass Originals
DYEAR=1900
DGENRE=
TTITLE0=Love Me Darling Just Tonight
TTITLE1=Little Maggie
TTITLE2=Holdiay Pickin'
TTITLE3=Tragic Romance
TTITLE4=Five String Drag
TTITLE5=Old Love Letters
TTITLE6=Don't Go Out Tonight
TTITLE7=Midnight Ramble
TTITLE8=I'm a Man of Constant Sorrow
TTITLE9=It's Raining Here This Morning
TTITLE10=Stone Walls and Steel Bars
TTITLE11=Don't Step Over an Old Love
TTITLE12=Still Trying to Get to Little Rock
TTITLE13=Little Benny
TTITLE14=Sunny Side of the Mountain
TTITLE15=Sweeter Than the Flowers
TTITLE16=Just Because
TTITLE17=Let Me Love You One More Time
TTITLE18=Daybreak in Dixie
TTITLE19=Wild Side of Life
EXTD=
EXTT0=
EXTT1=
EXTT2=
EXTT3=
EXTT4=
EXTT5=
EXTT6=
EXTT7=
EXTT8=
EXTT9=
EXTT10=
EXTT11=
EXTT12=
EXTT13=
EXTT14=
EXTT15=
EXTT16=
EXTT17=
EXTT18=
EXTT19=
PLAYORDER=
